<svg version="1.1" xmlns="http://www.w3.org/2000/svg" style="display: block;" viewBox="0 0 2048 2048" width="1024" height="1024" preserveAspectRatio="none">
<defs>
	<linearGradient id="Gradient1" gradientUnits="userSpaceOnUse" x1="135.532" y1="2052.72" x2="140.02" y2="2008.68">
		<stop class="stop0" offset="0" stop-opacity="1" stop-color="rgb(154,154,154)"/>
		<stop class="stop1" offset="1" stop-opacity="1" stop-color="rgb(198,197,197)"/>
	</linearGradient>
</defs>
<path transform="translate(0,0)" fill="rgb(228,228,228)" d="M 0 0 L 2048 0 L 2048 2048 L 560.967 2048 L 113.501 2048 L 0 2048 L 0 2041.03 L 0 1962.48 L 0 0 z"/>
<path transform="translate(0,0)" fill="url(#Gradient1)" d="M 0 1962.48 C 3.17894 1964.95 2.28022 1963.51 2.86181 1967.2 C 4.00629 1974.46 2.13352 2008.47 3.59759 2012.22 C 12.0473 2013.44 22.2269 2012.42 31 2012.51 C 30.9683 2008.93 30.5234 2004.18 31.8759 2001.03 C 35.3344 2002.57 38.8387 2007.18 39.5986 2010.97 L 41.4151 2011.86 C 44.9951 2007.65 43.3504 2003.86 47.1656 2000.86 C 50.1182 2001.17 48.8716 2000.57 50.9654 2002.83 C 53.5765 2013.43 48.5837 2022.96 65.94 2019.48 C 66.9517 2017.26 66.9444 2015.55 67.1901 2013.14 L 68.3836 2012.76 C 71.4526 2016.96 71.2175 2018.75 74.9324 2020.97 C 78.2381 2020.75 78.0094 2020.77 80.94 2019.18 L 83.5369 2019.5 C 84.7287 2016.02 84.2108 2006.06 83.672 2002.22 L 82.2977 2001.58 L 81.5676 2006.3 C 76.3953 2007.74 76.7464 2003.39 70.2403 2008.9 C 70.4657 2006.33 70.3673 2007.46 72.5343 2004.83 C 77.2944 2004.68 79.2047 2003.05 83.2422 2000.71 L 84.6959 2001.43 C 84.9004 2004.55 84.7988 2010.8 86.3099 2013.06 L 88.4906 2008.14 L 87.7353 2006.77 C 97.4762 2001.66 101.483 2004.7 101.318 2015.42 C 104.384 2015.53 107.262 2015.27 109.96 2016.33 C 109.371 2011.82 107.338 2008.39 108.184 2004.92 L 109.608 2004.41 C 111.949 2006.42 113.32 2007.41 113.428 2010.63 L 112.488 2011.19 C 110.983 2008.97 111.365 2007.89 110.107 2006.28 L 109.457 2006.93 C 110.099 2010.87 111.129 2016.8 113.628 2019.83 C 117.549 2018.05 115.812 2014.79 119.448 2012.76 L 122.573 2019.8 L 124.078 2019.9 C 125.026 2018.22 125.825 2016.82 126.655 2015.08 L 127.813 2017.62 C 129.792 2016.73 129.112 2017.37 130.093 2015.99 C 130.933 2019 130.07 2017.81 132.234 2019.91 C 134.449 2017.25 134.371 2010.11 134.66 2006.16 L 135.834 2006.53 C 138.798 2013.28 133.795 2020.15 143.22 2020.38 L 146.966 2018.76 C 145.791 2015.04 145.115 2005.47 147.259 2002.31 L 147.999 2004.99 L 149.455 2004.74 C 152.839 2004.46 154.388 2003.94 157.262 2005.68 C 162.583 2012.2 155.717 2024.05 168.702 2019.69 C 172.045 2010.65 176.367 1990.62 184.115 1986.42 C 189.629 1986.2 195.788 1985.35 196.907 1991.76 C 195.495 1995.94 192.371 2001.11 193.052 2004.25 C 195.264 2006.25 198.476 2006.06 201.658 2006.38 C 206.628 2011.47 197.571 2017.17 197.135 2024.34 C 201.797 2025.9 205.809 2024.51 210.522 2025.61 C 226.486 2029.33 242.402 2033.55 258.21 2037.87 C 264.178 2039.5 272.888 2044.38 278.725 2044.66 C 298.395 2045.6 318.624 2044.61 338.312 2044.77 L 502.525 2045 C 510.848 2044.99 563.056 2044.25 568.303 2045.93 C 566.13 2047.51 563.696 2047.57 560.967 2048 L 113.501 2048 L 0 2048 L 0 2041.03 L 0 1962.48 z"/>
<path transform="translate(0,0)" fill="rgb(142,141,141)" d="M 1.77636e-15 2041.03 C 11.4398 2040.91 22.8806 2041.16 34.3046 2041.77 C 38.3596 2041.99 50.7208 2043.2 53.4232 2042.95 L 48.9143 2042.28 C 57.3562 2042.22 66.4461 2043.35 74.8685 2044.27 C 84.769 2045.35 105.748 2042.38 113.501 2048 L 0 2048 L 0 2041.03 z"/>
<path transform="translate(0,0)" fill="rgb(250,249,250)" d="M 88.4906 2008.14 C 92.6836 2005.7 99.0009 2005.61 101.283 2010.27 C 99.4073 2013.4 94.3948 2014.64 90.4485 2016.22 C 92.7702 2018.83 96.2059 2017.12 98.9217 2016.04 L 99.5294 2017.29 C 96.9166 2020.45 98.4897 2019.47 94.8556 2020.66 C 90.965 2019.96 91.0907 2019.79 88.1222 2017.43 C 87.15 2015.43 86.9187 2015.17 86.3099 2013.06 L 88.4906 2008.14 z"/>
<path transform="translate(0,0)" fill="rgb(250,249,250)" d="M 146.966 2018.76 C 145.791 2015.04 145.115 2005.47 147.259 2002.31 L 147.999 2004.99 C 152.605 2008.82 160.57 2002.36 157.626 2018.45 C 156.407 2014.4 155.96 2011.6 153.273 2008.44 C 150.419 2007.43 151.823 2007.4 148.935 2008.76 C 146.918 2013.77 148.893 2016.03 146.966 2018.76 z"/>
<path transform="translate(0,0)" fill="rgb(250,249,250)" d="M 182.284 1988.74 L 196.2 1988.85 L 189.214 2007.43 L 201.733 2007.86 L 193.689 2027.5 C 193.123 2027.59 192.569 2027.24 192.021 2027.08 C 191.925 2024.72 191.808 2023.39 191.479 2021.05 C 188.344 2019.02 174.004 2019.91 169.617 2019.99 C 172.428 2011.35 178.599 1997.58 182.284 1988.74 z"/>
<path transform="translate(0,0)" fill="rgb(250,249,250)" d="M 32.0668 2002.4 C 32.7628 2002.83 34.1403 2004.05 34.8248 2004.63 C 36.4585 2008.29 34.5953 2014.1 33.9085 2018.72 L 32.5585 2019.32 C 31.4309 2015.24 31.975 2006.97 32.0668 2002.4 z"/>
<path transform="translate(0,0)" fill="rgb(194,193,193)" d="M 143.22 2020.38 C 137.891 2014.86 138.273 2011.47 144.115 2007.24 C 144.332 2007.09 144.928 2001.26 145.012 2000.43 C 147.258 1999.41 146.032 1999.62 148.879 2000.59 L 149.455 2004.74 L 147.999 2004.99 L 147.259 2002.31 C 145.115 2005.47 145.791 2015.04 146.966 2018.76 L 143.22 2020.38 z"/>
<path transform="translate(0,0)" fill="rgb(249,82,61)" d="M 467.982 900.873 C 524.653 901.204 574.908 892.986 619.619 934.138 C 643.884 956.798 658.092 988.211 659.087 1021.4 C 660.89 1077.42 624.902 1128.05 570.94 1143.5 C 554.927 1148.08 543.769 1148.38 527.387 1148.72 L 468.025 1148.75 L 468.029 1090.44 C 470.343 1090.61 472.662 1090.72 474.983 1090.77 C 494.219 1091.13 513.592 1090.89 532.84 1090.98 C 551.182 1091.06 567.464 1085.27 580.665 1072.19 C 592.825 1060.05 599.655 1043.58 599.647 1026.4 C 599.632 993.187 572.698 963.742 539.553 960.572 C 530.399 959.696 520.059 960.158 510.793 960.177 L 467.995 960.246 L 467.982 900.873 z"/>
<path transform="translate(0,0)" fill="rgb(249,82,61)" d="M 1473.6 960.385 C 1503.18 959.077 1535.29 959.886 1565.7 960.995 C 1588.25 961.817 1573.54 1012.91 1578.12 1027.69 C 1579.88 1033.38 1578.28 1053.11 1570.33 1055.36 C 1539.37 1064.1 1563.47 1000.62 1549.95 997.826 C 1544.61 1003.12 1549.59 1117.79 1547.45 1136.51 C 1547.05 1140.06 1546.16 1143.87 1543.92 1146.74 C 1542 1149.21 1539.43 1150.08 1536.44 1150.46 C 1533.37 1150.85 1530.16 1150.34 1527.78 1148.21 C 1518.95 1140.33 1522.78 1112.68 1522.81 1100.89 C 1522.81 1093.9 1523.75 1067.91 1521.97 1063.44 C 1519.35 1061.52 1520.76 1061.85 1517.61 1062.33 C 1513.01 1071.42 1521.99 1132.43 1513.35 1145.42 C 1506.18 1156.19 1492.25 1148.75 1491.91 1138.92 C 1491.51 1127.75 1491.99 1115.7 1491.95 1104.29 L 1491.31 1038.48 C 1491.23 1025.86 1491.81 1012.22 1490.97 999.797 C 1489.62 997.861 1490.52 998.601 1487.83 998.041 C 1479.72 1003.87 1493.33 1049.13 1476.59 1057.61 C 1471.44 1057.98 1462.31 1052.47 1462.09 1047.71 C 1460.98 1024.63 1461.17 1000.89 1461.23 977.691 C 1461.26 968.311 1464.33 962.287 1473.6 960.385 z"/>
<path transform="translate(0,0)" fill="rgb(249,82,61)" d="M 704.876 991.33 C 724.992 991.126 752.349 988.431 767.912 1002.86 C 785.483 1019.14 783.771 1048.14 768.32 1064.94 C 749.585 1080.77 727.896 1077.29 704.307 1077.01 C 705.156 1048.55 704.203 1019.88 704.876 991.33 z"/>
<path transform="translate(0,0)" fill="rgb(228,228,228)" d="M 724.795 1009.05 C 740.234 1009.98 749.34 1008.87 758.684 1022.95 C 760.212 1036.23 761.536 1040.67 753.716 1052.05 C 743.205 1060.47 738.35 1059.34 724.993 1059.2 C 724.603 1042.48 724.537 1025.77 724.795 1009.05 z"/>
<path transform="translate(0,0)" fill="rgb(249,82,61)" d="M 929.123 991.115 L 950.312 991.166 C 954.869 1005.15 960.994 1020.08 966.028 1034.03 C 971.141 1048.19 976.201 1063.21 981.907 1077 L 959.92 1076.9 C 958.031 1071.12 956.719 1065.74 954.26 1060.13 L 952.013 1059.42 C 942.338 1059.32 934.105 1059.54 924.455 1060 C 923.311 1065.18 921.37 1071.74 919.983 1076.99 L 897.823 1077.02 C 907.967 1048.28 919.026 1019.99 929.123 991.115 z"/>
<path transform="translate(0,0)" fill="rgb(250,249,250)" d="M 939.177 1018.44 C 942.639 1021.59 947.085 1036.37 948.001 1040.98 C 946.32 1042.22 943.91 1041.52 941.187 1041.37 C 937.609 1041.51 933.901 1041.51 930.31 1041.56 C 933.463 1034.1 936.325 1026.06 939.177 1018.44 z"/>
<path transform="translate(0,0)" fill="rgb(249,82,61)" d="M 1195.89 1014.86 C 1213.4 1013.59 1228.7 1026.6 1230.25 1044.08 C 1231.81 1061.57 1219.05 1077.07 1201.59 1078.91 C 1190.04 1080.12 1178.73 1075.02 1172.01 1065.55 C 1165.28 1056.09 1164.19 1043.73 1169.14 1033.23 C 1174.08 1022.72 1184.31 1015.7 1195.89 1014.86 z"/>
<path transform="translate(0,0)" fill="rgb(228,228,228)" d="M 1194.94 1031.96 C 1196.18 1032.07 1197.41 1032.18 1198.64 1032.38 C 1203.09 1033.06 1207.06 1035.55 1209.61 1039.26 C 1211.71 1042.36 1212.45 1046.2 1211.64 1049.86 C 1210.5 1055.23 1206.78 1058.19 1202.52 1061.11 C 1180.95 1060.87 1180.23 1044.74 1194.94 1031.96 z"/>
<path transform="translate(0,0)" fill="rgb(249,82,61)" d="M 1099.27 990.984 L 1118.16 991.041 C 1118.27 1001.76 1118.45 1012.49 1118.68 1023.21 C 1127.84 1015.57 1140.91 1011.87 1150.2 1020.4 C 1160.93 1030.25 1157.05 1062.89 1157.14 1077.16 L 1138.27 1076.99 C 1138.64 1071.39 1138.38 1063.39 1138.35 1057.62 C 1138.64 1043.17 1137.58 1019.21 1118.61 1039.96 C 1117.77 1051.96 1118.36 1064.98 1118.64 1077.07 L 1099.17 1077.07 L 1099.27 990.984 z"/>
<path transform="translate(0,0)" fill="rgb(249,82,61)" d="M 511.942 991.455 L 527.512 991.3 C 527.555 998.214 527.146 1006.03 526.93 1013.01 L 550.936 1013.08 L 550.852 1035.97 L 526.953 1035.99 C 527.257 1041.28 528.536 1053.4 526.237 1057.73 L 523.25 1058.1 L 504.417 1057.9 C 504.335 1050.9 504.671 1043.05 504.82 1035.97 L 481.519 1036 L 481.463 1013.02 L 504.292 1013.1 C 504.558 1006.18 503.005 999.704 504.881 993.705 C 507.305 990.962 506.925 991.869 511.942 991.455 z"/>
<path transform="translate(0,0)" fill="rgb(249,82,61)" d="M 1367.41 1016.55 C 1371.59 1016.39 1375.96 1016.4 1380.16 1016.35 C 1384.69 1024.42 1390.01 1039.35 1393.4 1048.32 C 1397.32 1037.84 1401.35 1027.41 1405.5 1017.02 C 1412.43 1016.6 1418.04 1016.52 1424.98 1016.57 C 1416.88 1033.16 1408.97 1055.57 1402.4 1073.24 C 1398.97 1082.56 1395.12 1093.46 1385.51 1097.61 C 1379.74 1100.1 1372.67 1102.07 1366.6 1099.86 C 1365.3 1096.47 1365.87 1088.23 1365.94 1084.19 L 1378.18 1083.81 L 1384.91 1073.58 C 1378.8 1058.91 1365.87 1031.69 1361.39 1018.25 C 1363.18 1016.33 1363.96 1016.92 1367.41 1016.55 z"/>
<path transform="translate(0,0)" fill="rgb(249,82,61)" d="M 985.763 1017.02 L 1004.1 1016.8 C 1004.2 1026.02 1002.17 1053.46 1006.95 1057.24 C 1029.74 1075.23 1024.41 1021.91 1024.46 1016.92 L 1043 1016.97 L 1043.07 1036.75 C 1042.92 1050.14 1042.94 1063.54 1043.13 1076.93 C 1037.33 1077.12 1031.79 1077.53 1026.05 1076.79 C 1024.97 1074.73 1025.05 1074.78 1024.83 1072.54 C 1019.73 1072.48 1014.93 1077.84 1008.53 1078.29 C 978.038 1080.44 985.599 1038.54 985.763 1017.02 z"/>
<path transform="translate(0,0)" fill="rgb(249,82,61)" d="M 1514.26 898.08 C 1528.99 895.042 1543.41 904.476 1546.53 919.193 C 1549.64 933.91 1540.29 948.381 1525.59 951.577 C 1510.77 954.798 1496.17 945.355 1493.03 930.525 C 1489.89 915.696 1499.41 901.141 1514.26 898.08 z"/>
<path transform="translate(0,0)" fill="rgb(249,82,61)" d="M 1323.81 996.053 L 1342.41 996.023 L 1342.36 1016.9 L 1356.99 1016.91 L 1356.71 1031.7 L 1342.14 1031.95 C 1342.05 1039.43 1340.33 1051.96 1345.09 1058.13 C 1347.89 1061.78 1352.7 1058.57 1356.9 1062.03 C 1358.89 1065.79 1358.13 1069.76 1357.93 1074.21 L 1357.73 1075.68 L 1356.09 1076.91 C 1349.01 1077.18 1340.09 1077.78 1333.55 1074.94 C 1317.58 1067.98 1326.97 1045.62 1322.33 1032.66 C 1314.85 1029.96 1310.02 1024.5 1315.4 1016.87 C 1318.32 1017.03 1318.31 1017.14 1321.09 1016.39 C 1325.56 1011.5 1324.06 1002.91 1323.81 996.053 z"/>
<path transform="translate(0,0)" fill="rgb(249,82,61)" d="M 1057.93 995.977 L 1076.91 996.069 L 1076.9 1016.42 L 1090.96 1016.84 C 1090.85 1021.67 1090.44 1026.92 1090.15 1031.78 L 1076.35 1032 C 1076.21 1039.61 1074.78 1052.48 1079.63 1058.02 C 1081.67 1060.36 1084.86 1060.41 1087.92 1060.85 L 1089.36 1061.05 C 1092.03 1063.84 1091.14 1063.96 1091.52 1069 C 1091.68 1071.87 1091.7 1072.8 1091.45 1075.66 L 1089.64 1076.84 C 1045.3 1079.68 1063.67 1056.2 1056.23 1032.21 C 1049.6 1029.65 1047.04 1021.77 1050.77 1016.82 C 1053.33 1016.89 1055.09 1017.21 1057.38 1016.11 C 1058.77 1011.93 1058.05 1000.98 1057.93 995.977 z"/>
<path transform="translate(0,0)" fill="rgb(249,82,61)" d="M 827.936 1015.28 L 828.485 1015.69 C 829.861 1018.54 829.112 1029.75 829.01 1033.67 C 817.256 1032.91 816.371 1034.16 808.833 1043.39 C 808.368 1054.45 808.317 1066.24 808.087 1077.37 C 802.749 1077.22 793.454 1078.72 789.49 1075.9 L 789.237 1072.25 C 789.698 1054.21 789.355 1035.18 789.289 1017.07 C 794.11 1017.01 801.321 1016.87 806.197 1017.05 C 809.802 1017.19 806.277 1020.21 808.517 1025.04 C 815.996 1019.57 818.528 1016.53 827.936 1015.28 z"/>
<path transform="translate(0,0)" fill="rgb(249,82,61)" d="M 1279.01 1015.39 C 1280.81 1018.6 1279.93 1028.43 1279.05 1032.11 C 1278.04 1032.3 1277.03 1032.5 1276.03 1032.71 C 1265.95 1034.85 1264.24 1036.1 1258.94 1044.29 C 1257.93 1054.28 1258.27 1067.06 1258.63 1077.12 C 1253.91 1077.21 1243.95 1078 1240.36 1075.92 L 1240.01 1073.25 L 1240.08 1017.04 C 1245.75 1016.91 1250.98 1016.84 1256.67 1016.95 C 1258.77 1018.45 1257.72 1020.61 1258.55 1024.93 C 1266.37 1019.38 1268.42 1016.68 1277.7 1015.54 L 1279.01 1015.39 z"/>
<path transform="translate(0,0)" fill="rgb(249,82,61)" d="M 849.228 1101.86 C 851.152 1102.4 850.192 1101.91 851.943 1103.62 C 852.941 1108.17 853.44 1142.56 853.141 1148.07 L 850.908 1149.71 C 847.332 1149.94 845.79 1147.82 844.407 1147.44 C 835.942 1145.12 839.754 1152.11 826.845 1148.96 C 806.054 1137.13 815.692 1110.41 842.066 1117.36 C 842.234 1112.57 841.309 1109.65 842.305 1104.94 C 844.77 1101.79 844.045 1102.79 849.228 1101.86 z"/>
<path transform="translate(0,0)" fill="rgb(228,228,228)" d="M 831.019 1124.73 C 833.738 1123.36 836.993 1123.62 839.464 1125.4 C 841.934 1127.18 843.211 1130.18 842.776 1133.2 C 842.342 1136.21 840.268 1138.73 837.395 1139.74 C 833.33 1141.16 828.855 1139.19 827.171 1135.22 C 825.486 1131.26 827.17 1126.67 831.019 1124.73 z"/>
<path transform="translate(0,0)" fill="rgb(249,82,61)" d="M 930.472 1115.36 C 935.84 1115.37 949.413 1114.38 952.826 1118.02 L 952.346 1120.1 C 939.387 1129.13 963.988 1134.3 924.443 1139.03 C 936.52 1140.49 954.194 1138.15 951.069 1154.7 C 944.441 1163.29 930.478 1164.73 921.785 1157.25 C 918.85 1154.73 919.31 1142.1 919.805 1137.86 L 923.437 1136.62 C 923.839 1129.76 918.769 1127.62 921.702 1120.18 C 925.043 1117.13 926.108 1117.02 930.472 1115.36 z"/>
<path transform="translate(0,0)" fill="rgb(250,249,250)" d="M 927.713 1149.11 C 933.39 1148.75 936.677 1147.84 941.02 1151.08 L 940.711 1153.83 C 936.424 1154.51 934.015 1155.32 929.95 1154.23 C 927.264 1151.73 928.175 1153.28 927.713 1149.11 z"/>
<path transform="translate(0,0)" fill="rgb(250,249,250)" d="M 931.353 1123.53 C 932.528 1122.36 934.248 1121.93 935.833 1122.41 C 937.419 1122.89 938.615 1124.2 938.95 1125.82 C 939.285 1127.44 938.705 1129.11 937.439 1130.18 C 935.587 1131.74 932.835 1131.56 931.201 1129.78 C 929.567 1127.99 929.634 1125.23 931.353 1123.53 z"/>
<path transform="translate(0,0)" fill="rgb(249,82,61)" d="M 1288.77 1016.67 L 1307.93 1016.98 C 1308.15 1036.83 1307.79 1057.05 1307.93 1077 L 1288.81 1077.16 C 1288.92 1057 1288.9 1036.83 1288.77 1016.67 z"/>
<path transform="translate(0,0)" fill="rgb(249,82,61)" d="M 1003.89 1102.28 C 1012.26 1102.28 1018.84 1104.16 1022.54 1111.98 L 1021.83 1113.64 C 1014.94 1115.41 1005.65 1110.71 998.384 1113.99 C 987.263 1119 991.1 1137.52 1002.06 1140.32 C 1008.81 1142.05 1014.37 1137.16 1019.62 1133.74 C 1020.41 1137.64 1021.47 1140.31 1022.82 1144.07 C 1012.88 1149.18 1003.03 1152.32 992.63 1146.21 C 986.71 1142.71 982.558 1136.86 981.213 1130.12 C 977.882 1113.91 989.252 1104.87 1003.89 1102.28 z"/>
<path transform="translate(0,0)" fill="rgb(249,82,61)" d="M 1122.2 1138.58 C 1124.82 1139.96 1124.65 1139.84 1126.31 1142.31 L 1125.62 1144.65 C 1108.92 1159.81 1083.03 1137.74 1099.57 1121.11 C 1103.35 1117.36 1108.52 1115.34 1113.85 1115.54 C 1119.85 1115.75 1122.9 1118.99 1126.72 1123.06 C 1128.22 1128.76 1130.53 1131.51 1125.33 1134.94 C 1124.81 1135.55 1122.64 1138.22 1122.2 1138.58 z"/>
<path transform="translate(0,0)" fill="rgb(250,249,250)" d="M 1122.2 1138.58 C 1117.9 1141.39 1109.98 1142.64 1106.78 1137.84 C 1110.24 1133.66 1120.16 1134.85 1125.33 1134.94 C 1124.81 1135.55 1122.64 1138.22 1122.2 1138.58 z"/>
<path transform="translate(0,0)" fill="rgb(249,82,61)" d="M 781.977 1125.34 C 781.412 1119.97 780.656 1121.06 783.032 1117.64 C 788.874 1114.5 791.966 1114.24 798.341 1116.05 C 812.6 1120.09 804.62 1132.55 807.465 1140.57 C 809.554 1141.28 810.066 1141.32 812.272 1141.63 C 813.307 1145.03 813.159 1143.29 812.314 1147.06 C 807.412 1151.19 801.677 1149.6 798.111 1144.54 C 785.868 1157.5 768.525 1144.3 783.623 1129.38 C 781.901 1128.16 782.659 1128.52 781.977 1125.34 z"/>
<path transform="translate(0,0)" fill="rgb(249,82,61)" d="M 783.623 1129.38 C 789.709 1128.32 791.713 1128.72 797.675 1129.38 C 797.549 1135.14 797.421 1138.72 798.111 1144.54 C 785.868 1157.5 768.525 1144.3 783.623 1129.38 z"/>
<path transform="translate(0,0)" fill="rgb(250,249,250)" d="M 781.977 1125.34 C 787.757 1123.73 790.597 1122.02 795.604 1124.79 C 796.421 1126.48 796.964 1127.63 797.675 1129.38 C 791.713 1128.72 789.709 1128.32 783.623 1129.38 C 781.901 1128.16 782.659 1128.52 781.977 1125.34 z"/>
<path transform="translate(0,0)" fill="rgb(249,82,61)" d="M 753.464 1115.12 C 763.408 1115.17 774.041 1121.99 771.424 1132.69 C 765.882 1137.77 758.233 1134.22 750.438 1136.21 L 750.308 1137.64 C 757.513 1144.5 761.709 1138.78 771.416 1141.04 C 768.813 1150.99 756.267 1152 748.236 1147.93 C 743.556 1145.52 740.052 1141.31 738.526 1136.28 C 735.229 1125.14 743.77 1118.08 753.464 1115.12 z"/>
<path transform="translate(0,0)" fill="rgb(249,82,61)" d="M 1044.72 1115.42 C 1059.94 1115.99 1055.56 1126.9 1057.58 1137.92 C 1061.26 1141.25 1064.63 1142.62 1062.68 1147.39 C 1058.83 1149.97 1060.82 1149.48 1056.72 1149.64 C 1045.43 1143.65 1048.03 1148.16 1035.92 1150.06 C 1031.12 1147.82 1028.65 1144.85 1027.94 1139.33 C 1026.4 1127.26 1044.01 1130.17 1046.52 1126.69 C 1043.73 1124.15 1036.1 1123.72 1030.54 1121.09 L 1030.18 1119.61 C 1034.36 1115.51 1039.15 1115.73 1044.72 1115.42 z"/>
<path transform="translate(0,0)" fill="rgb(250,249,250)" d="M 1044.94 1134.21 C 1046.27 1134.41 1045.44 1134.18 1047.23 1135.41 L 1047.18 1137.07 C 1044.91 1140.77 1044.62 1140.82 1040.78 1143.14 C 1039.07 1140.8 1037.53 1139.37 1037.48 1136.56 C 1040.39 1134.11 1040.43 1134.85 1044.94 1134.21 z"/>
<path transform="translate(0,0)" fill="rgb(249,82,61)" d="M 896.447 1115.01 C 915.185 1114.55 916.232 1135.76 910.804 1148.3 C 907.994 1149.1 907.432 1148.72 904.565 1148.14 C 897.846 1141.78 905.924 1134.53 900.58 1125.74 C 896.928 1123.67 898.107 1124.31 893.384 1124.33 C 888.019 1132.55 891.205 1136.84 889.367 1146.86 C 886.381 1150.51 886.004 1151.44 882.118 1149.27 C 877.622 1141.95 879.44 1128.02 879.926 1119.68 C 880.311 1113.07 888.094 1117.55 892.327 1117.53 C 893.952 1116.54 895.325 1115.7 896.447 1115.01 z"/>
<path transform="translate(0,0)" fill="rgb(249,82,61)" d="M 704.811 1103.2 C 709.074 1103.07 710.173 1102.9 714.259 1103.79 C 715.265 1107.6 715.364 1134.08 715.53 1140.06 C 720.835 1139.95 728.576 1138.88 732.68 1140.68 C 735.392 1144.12 734.495 1143.44 734.691 1148.87 L 705.027 1148.98 L 704.811 1103.2 z"/>
<path transform="translate(0,0)" fill="rgb(250,249,250)" d="M 204.879 1988.96 C 208.152 1988.86 216.767 1988.34 219.41 1989.47 C 237.792 1997.3 232.048 2012.19 216.779 2018.56 C 212.353 2019.79 207.876 2019.48 203.233 2019.51 C 206.258 2013.62 210.577 2006.7 213.994 2000.89 C 208.878 2000.9 204.574 2000.72 199.512 2000.43 C 201.269 1996.59 203.059 1992.77 204.879 1988.96 z"/>
<path transform="translate(0,0)" fill="rgb(194,193,193)" d="M 324.77 2006.68 C 322.682 2003.38 322.898 2000.43 326.447 1998.83 C 329.535 1999.32 329.314 1999.27 331.786 2001.22 L 330.961 2002.66 C 329.561 2000.68 329.706 2000.75 327.624 1999.53 C 324.855 2000.64 325.868 1999.71 324.559 2002.48 C 327.428 2007.26 325.36 2001.55 331.825 2006.23 C 333.666 2003.36 334.063 2002.17 337.143 2000.7 L 338.423 2001.5 L 339.165 2005.87 L 340.448 2006.18 C 343.632 2002.74 343.55 2001.18 347.012 2000.19 L 348.529 2001.34 C 348.014 2003.82 348.347 2002.98 346.958 2005.05 C 347.781 2007.45 348.16 2007.04 347.641 2008.77 C 348.622 2013.94 348.893 2016.54 346.818 2021.38 L 345.475 2022.51 C 342.196 2021.88 343.704 2022.55 341.043 2019.96 L 340.978 2011.87 L 339.979 2010.94 L 338.955 2011.97 C 339.027 2015.22 339.472 2017.8 338.475 2020.71 C 333.477 2021.82 329.273 2021.9 324.555 2019.66 C 323.311 2016.6 323.635 2016.82 323.247 2013.52 L 324.315 2013.45 C 325.124 2010.71 324.871 2009.55 324.77 2006.68 z"/>
<path transform="translate(0,0)" fill="rgb(250,249,250)" d="M 331.825 2006.23 C 333.666 2003.36 334.063 2002.17 337.143 2000.7 L 338.423 2001.5 L 339.165 2005.87 L 340.448 2006.18 C 343.632 2002.74 343.55 2001.18 347.012 2000.19 L 348.529 2001.34 C 348.014 2003.82 348.347 2002.98 346.958 2005.05 C 347.781 2007.45 348.16 2007.04 347.641 2008.77 C 347.089 2013.21 347.468 2017.24 344.945 2019.95 L 342.928 2019.82 C 340.655 2016.35 343.334 2014.49 341.027 2009.51 L 339.048 2009.26 C 335.607 2013.59 339.348 2014.94 336.605 2019.56 L 334.484 2019.97 L 333.108 2019.04 C 332.826 2014.53 332.373 2010.69 331.825 2006.23 z"/>
<path transform="translate(0,0)" fill="rgb(250,249,250)" d="M 324.77 2006.68 C 328.13 2005.51 326.675 2005.27 329.36 2006.54 C 331.151 2011.61 330.62 2014.33 328.774 2019.23 L 327.18 2020.35 C 324.758 2018.24 324.767 2017.12 324.315 2013.45 C 325.124 2010.71 324.871 2009.55 324.77 2006.68 z"/>
<path transform="translate(0,0)" fill="rgb(249,82,61)" d="M 840.525 1056.49 C 844.568 1055.29 848.942 1056.44 851.874 1059.47 C 854.806 1062.5 855.811 1066.91 854.48 1070.91 C 853.15 1074.92 849.706 1077.85 845.543 1078.52 C 839.648 1079.47 834.027 1075.68 832.7 1069.86 C 831.374 1064.03 834.799 1058.18 840.525 1056.49 z"/>
<path transform="translate(0,0)" fill="rgb(249,82,61)" d="M 1298.49 987.416 C 1304.43 987.274 1309.4 991.903 1309.68 997.842 C 1309.96 1003.78 1305.45 1008.86 1299.52 1009.27 C 1295.56 1009.55 1291.76 1007.66 1289.59 1004.34 C 1287.42 1001.01 1287.22 996.775 1289.06 993.261 C 1290.91 989.748 1294.52 987.511 1298.49 987.416 z"/>
<path transform="translate(0,0)" fill="rgb(249,82,61)" d="M 1080.13 1128.15 C 1078.7 1134.45 1080.76 1144.98 1076.68 1149.03 C 1072.85 1149.05 1074.64 1149.48 1071.18 1147.48 C 1066.81 1140.8 1067.31 1119.51 1073.58 1114.61 L 1076.62 1115.28 C 1078.75 1118.25 1078.73 1119.53 1079.2 1123.01 L 1078.38 1125.43 L 1080.13 1128.15 z"/>
<path transform="translate(0,0)" fill="rgb(249,82,61)" d="M 865.114 1115.78 C 868.129 1116.02 868.726 1115.81 871.359 1117.32 C 872.226 1121.43 872.273 1146.65 869.888 1149.22 C 867.053 1148.99 865.298 1148.75 862.544 1148.3 C 859.777 1143.08 861.153 1128.31 861.573 1122.35 C 861.869 1118.14 862.58 1117.86 865.114 1115.78 z"/>
<path transform="translate(0,0)" fill="rgb(250,249,250)" d="M 269.586 2006.29 C 273.667 2006.33 277.749 2006.29 281.829 2006.18 C 281.982 2012.79 283.217 2020.05 279.341 2025.04 C 275.766 2027.28 274.587 2026.76 270.096 2026.42 C 268.604 2023.77 268.783 2025.16 268.95 2022.32 C 274.221 2022.78 274.289 2023.85 277.244 2021.53 L 276.861 2020.33 C 266.822 2018.86 264.797 2016 269.586 2006.29 z"/>
<path transform="translate(0,0)" fill="rgb(250,249,250)" d="M 307.125 2002.49 C 318.679 2002.5 325.936 2004.78 320.139 2017.96 C 316.595 2019.48 312.472 2020.76 308.807 2019.1 C 306.016 2015.55 307.008 2007.37 307.125 2002.49 z"/>
<path transform="translate(0,0)" fill="rgb(194,193,193)" d="M 310.977 2005.41 C 314.143 2005.87 313.962 2005.77 316.721 2007.36 C 318.604 2010.11 318.129 2012.09 318.031 2015.47 C 314.995 2016.18 315.144 2016.3 312.125 2015.74 C 310.149 2012.59 310.931 2009.7 310.977 2005.41 z"/>
<path transform="translate(0,0)" fill="rgb(250,249,250)" d="M 393.024 2006.52 C 395.353 2005.41 398.106 2005.65 400.208 2007.15 C 402.31 2008.65 403.43 2011.18 403.131 2013.74 C 402.831 2016.31 401.161 2018.51 398.769 2019.48 C 395.219 2020.93 391.159 2019.3 389.605 2015.79 C 388.051 2012.29 389.565 2008.18 393.024 2006.52 z"/>
<path transform="translate(0,0)" fill="rgb(250,249,250)" d="M 288.523 2006.57 C 292.068 2004.87 296.318 2006.39 297.984 2009.95 C 299.65 2013.51 298.093 2017.75 294.518 2019.38 C 290.987 2020.99 286.816 2019.46 285.171 2015.95 C 283.527 2012.43 285.022 2008.24 288.523 2006.57 z"/>
<path transform="translate(0,0)" fill="rgb(250,249,250)" d="M 255.298 2006.54 C 257.619 2005.55 260.294 2005.89 262.3 2007.42 C 264.306 2008.95 265.331 2011.45 264.985 2013.95 C 264.638 2016.45 262.973 2018.57 260.626 2019.5 C 257.063 2020.91 253.028 2019.19 251.57 2015.65 C 250.113 2012.11 251.773 2008.05 255.298 2006.54 z"/>
<path transform="translate(0,0)" fill="rgb(250,249,250)" d="M 369.167 2005.98 C 371.441 2006.03 373.208 2006.27 375.464 2006.53 C 379.884 2010.32 379.781 2015.47 377.008 2020.17 C 373.534 2019.89 370.782 2020.07 368.438 2017.9 C 371.546 2010.1 366.301 2016.14 369.167 2005.98 z"/>
<path transform="translate(0,0)" fill="rgb(250,249,250)" d="M 351.498 2005.23 C 355.957 2007.04 354.541 2011.21 355.872 2016.25 L 357.608 2017.07 C 359.815 2015.14 360.702 2009.84 361.626 2006.6 L 363.382 2006.03 L 364.739 2008.1 C 364.777 2012.84 365.531 2014.4 363.467 2018.22 C 352.07 2026.03 350.622 2013.66 351.498 2005.23 z"/>
<path transform="translate(0,0)" fill="rgb(250,249,250)" d="M 406.142 2006.05 C 413.629 2006.27 419.974 2005.88 420.493 2015.64 C 419.04 2018.8 420.188 2017.95 417.505 2018.95 C 415.203 2016.43 415.961 2016.51 415.6 2012.17 C 415.061 2009.99 415.171 2010.11 413.574 2008.55 C 408.854 2010.86 410.572 2017.39 406.93 2019.81 C 405.857 2014.41 406.086 2011.5 406.142 2006.05 z"/>
<path transform="translate(0,0)" fill="rgb(249,82,61)" d="M 1079.2 1123.01 C 1082.79 1117.87 1085.19 1113.7 1091.83 1117.55 C 1092.56 1121.64 1092.7 1119.57 1090.51 1123.85 C 1086.75 1125.96 1083.52 1126.2 1080.13 1128.15 L 1078.38 1125.43 L 1079.2 1123.01 z"/>
<path transform="translate(0,0)" fill="rgb(249,82,61)" d="M 861.284 1101.85 C 864.881 1102.03 866.871 1101.76 869.892 1103.7 C 871.933 1106.62 871.393 1109.21 871.338 1112.89 C 867.691 1113.08 865.127 1113.67 861.999 1111.95 C 860.233 1108.91 861 1105.49 861.284 1101.85 z"/>
<path transform="translate(0,0)" fill="rgb(194,193,193)" d="M 74.5784 2008.64 C 76.9773 2007.45 79.8868 2008.36 81.1833 2010.7 C 82.4798 2013.04 81.7046 2015.99 79.4235 2017.39 C 77.8529 2018.36 75.8791 2018.38 74.2853 2017.45 C 72.6916 2016.53 71.7357 2014.8 71.7969 2012.96 C 71.8582 2011.12 72.9267 2009.46 74.5784 2008.64 z"/>
<path transform="translate(0,0)" fill="rgb(194,193,193)" d="M 57.5617 2008.62 C 60.0835 2007.53 63.0113 2008.7 64.0819 2011.23 C 65.1525 2013.76 63.9555 2016.68 61.4162 2017.73 C 58.9061 2018.77 56.0287 2017.59 54.9704 2015.09 C 53.9121 2012.59 55.0689 2009.7 57.5617 2008.62 z"/>
<path transform="translate(0,0)" fill="rgb(250,249,250)" d="M 382.761 2005.22 C 384.622 2006.02 384.069 2005.76 385.656 2007.1 C 387.079 2012.07 386.158 2015.62 385.509 2020.79 C 384.661 2020.31 383.582 2019.43 382.765 2018.83 C 381.408 2013.93 382.229 2010.3 382.761 2005.22 z"/>
</svg>